<svg width="81" height="80" viewBox="0 0 81 80" fill="none" xmlns="http://www.w3.org/2000/svg">
<path opacity="0.3" d="M80.5 40C80.5 62.0914 62.5914 80 40.5 80C18.4086 80 0.5 62.0914 0.5 40C0.5 17.9086 18.4086 0 40.5 0C62.5914 0 80.5 17.9086 80.5 40ZM11.4071 40C11.4071 56.0675 24.4325 69.0929 40.5 69.0929C56.5675 69.0929 69.5929 56.0675 69.5929 40C69.5929 23.9325 56.5675 10.9071 40.5 10.9071C24.4325 10.9071 11.4071 23.9325 11.4071 40Z" fill="#2F2E30"/>
<circle cx="40.5" cy="40" r="29" fill="black"/>
<path d="M40.9275 38.1455V38.6455L41.4275 38.6455C42.0912 38.6455 42.7386 38.8513 43.2806 39.2345C43.8226 39.6177 44.2324 40.1595 44.4537 40.7852C44.4723 40.8381 44.4804 40.8941 44.4774 40.95C44.4744 41.0061 44.4604 41.061 44.4362 41.1116C44.412 41.1622 44.3781 41.2076 44.3363 41.2451C44.2946 41.2826 44.2459 41.3116 44.193 41.3303C44.1401 41.3489 44.084 41.357 44.0279 41.354C43.9719 41.351 43.917 41.337 43.8664 41.3128C43.7641 41.264 43.6855 41.1765 43.6477 41.0696L43.6477 41.0693C43.4853 40.6103 43.1845 40.2129 42.7869 39.9318C42.3893 39.6508 41.9143 39.4999 41.4273 39.5L40.9275 39.5002V40V43.7091V44.2091H41.4275C42.2786 44.2091 43.0948 44.5472 43.6966 45.149C44.2984 45.7508 44.6365 46.5671 44.6365 47.4181C44.6365 48.2692 44.2984 49.0855 43.6966 49.6873C43.0948 50.2891 42.2786 50.6272 41.4275 50.6272H40.9275V51.1272V51.5545H40.0729V51.1272V50.6272L39.5729 50.6272C38.9092 50.6272 38.2618 50.4214 37.7198 50.0382C37.1779 49.655 36.768 49.1132 36.5467 48.4875L36.5469 48.4874L36.5418 48.4743C36.5213 48.421 36.5116 48.3641 36.5134 48.307C36.5153 48.2499 36.5285 48.1938 36.5524 48.1419C36.5763 48.09 36.6104 48.0434 36.6526 48.0049C36.6948 47.9664 36.7443 47.9368 36.7982 47.9177C36.852 47.8987 36.9092 47.8907 36.9662 47.8941C37.0232 47.8975 37.079 47.9124 37.1302 47.9377C37.1814 47.9631 37.2269 47.9985 37.2642 48.0418C37.3015 48.085 37.3297 48.1354 37.3472 48.1898L37.3495 48.1968L37.352 48.2038C37.6765 49.1185 38.548 49.7727 39.5729 49.7727H40.0729V49.2727V45.5636V45.0636H39.5729C38.7218 45.0636 37.9056 44.7255 37.3038 44.1237C36.702 43.5219 36.3639 42.7057 36.3639 41.8546C36.3639 41.0035 36.702 40.1872 37.3038 39.5854C37.9056 38.9836 38.7218 38.6455 39.5729 38.6455H40.0729V38.1455V37.7183H40.9275V38.1455ZM40.0729 40V39.5H39.5729C38.9485 39.5 38.3496 39.7481 37.908 40.1897C37.4665 40.6312 37.2184 41.2301 37.2184 41.8546C37.2184 42.479 37.4665 43.0779 37.908 43.5195C38.3496 43.961 38.9485 44.2091 39.5729 44.2091H40.0729V43.7091V40ZM40.9275 49.2727V49.7727H41.4275C42.0519 49.7727 42.6508 49.5246 43.0924 49.083C43.5339 48.6415 43.782 48.0426 43.782 47.4181C43.782 46.7937 43.5339 46.1948 43.0924 45.7532C42.6508 45.3117 42.0519 45.0636 41.4275 45.0636H40.9275V45.5636V49.2727Z" fill="#FAFAFA" stroke="#FAFAFA"/>
<path d="M47.7695 32.5771L48.0001 32.8202C49.8981 34.8209 51.4858 37.0947 52.7105 39.5657L52.7115 39.5676C53.9873 42.1702 54.7037 44.8132 54.5867 47.1299L54.5867 47.13C54.4723 49.3911 53.5716 51.3571 51.5218 52.8058L51.5218 52.8059C49.4129 54.2959 45.9467 55.3334 40.5354 55.3334C35.1198 55.3334 31.6397 54.314 29.5132 52.842L29.5129 52.8419C27.4494 51.4118 26.5376 49.4719 26.4101 47.2372L47.7695 32.5771ZM47.7695 32.5771L47.457 32.6979M47.7695 32.5771L47.457 32.6979M47.457 32.6979C43.1083 34.3796 37.8707 34.3796 33.5219 32.6997L33.3417 33.1661L32.9752 32.826C31.1573 34.7855 29.4657 37.1896 28.251 39.6927L28.2509 39.6928M47.457 32.6979L28.2509 39.6928M28.2509 39.6928C26.9804 42.3122 26.2784 44.9431 26.4101 47.237L28.2509 39.6928ZM50.3428 26.1813C50.7832 26.3991 51.1642 26.6075 51.4775 26.7942L48.3457 31.3724L48.114 31.711L48.4009 32.0043C50.3394 33.986 52.1697 36.5162 53.4805 39.1918C54.7935 41.872 55.5679 44.6623 55.441 47.1734C55.3151 49.6636 54.3054 51.8861 52.0163 53.5034C49.7051 55.1362 46.0382 56.188 40.5364 56.188C35.0332 56.188 31.3544 55.155 29.028 53.544C26.7245 51.9488 25.6991 49.7542 25.558 47.2855C25.4157 44.795 26.1758 42.0151 27.4835 39.32C28.7889 36.6298 30.6229 34.0597 32.5812 31.9991L32.8589 31.707L32.6323 31.3736L29.5225 26.7978C29.6798 26.7051 29.8536 26.6073 30.043 26.5064L30.043 26.5064L30.0447 26.5055C30.2353 26.403 30.4408 26.2976 30.6614 26.19L30.8573 26.0945C33.1034 25.0239 36.6645 23.8093 40.5364 23.8093C44.4385 23.8093 47.9975 25.0427 50.2165 26.1199L50.3412 26.1804C50.3417 26.1807 50.3423 26.181 50.3428 26.1813ZM49.7117 27.8617L50.2968 27.0062L49.2631 27.0807C46.6696 27.2674 43.6003 27.8747 40.6554 28.7273C38.6714 29.3004 36.4387 29.2192 34.3339 28.8309C33.8046 28.7328 33.279 28.616 32.758 28.4807L31.4726 28.147L32.2188 29.2456L33.9991 31.867L34.091 32.0023L34.245 32.0571C38.1692 33.4542 42.7996 33.4541 46.7245 32.059L46.5571 31.5879L46.9698 31.8702L49.7117 27.8617ZM34.4877 27.9903L34.4881 27.9904C36.523 28.3652 38.6079 28.4297 40.4168 27.9057L40.4175 27.9055C42.3859 27.332 44.388 26.881 46.4122 26.5551L46.4768 25.5827C44.7353 25.0583 42.6905 24.6638 40.5354 24.6638C37.2536 24.6638 34.2063 25.5777 32.08 26.4802L32.2754 26.9405L32.1328 27.4197C32.8897 27.6449 33.6821 27.8412 34.4877 27.9903Z" fill="#FAFAFA" stroke="#FAFAFA"/>
</svg>
