<svg width="30" height="30" viewBox="0 0 30 30" fill="none" xmlns="http://www.w3.org/2000/svg">
<circle cx="15" cy="15" r="14.5" fill="white" stroke="black"/>
<path d="M21.5857 10.3909C22.1323 9.84429 22.1323 8.95658 21.5857 8.40996C21.039 7.86335 20.1513 7.86335 19.6047 8.40996L15 13.0191L10.3909 8.41434C9.84429 7.86772 8.95658 7.86772 8.40996 8.41434C7.86335 8.96096 7.86335 9.84866 8.40996 10.3953L13.0191 15L8.41434 19.6091C7.86772 20.1557 7.86772 21.0434 8.41434 21.59C8.96096 22.1367 9.84866 22.1367 10.3953 21.59L15 16.9809L19.6091 21.5857C20.1557 22.1323 21.0434 22.1323 21.59 21.5857C22.1367 21.039 22.1367 20.1513 21.59 19.6047L16.9809 15L21.5857 10.3909Z" fill="black"/>
</svg>
