<svg width="22" height="21" viewBox="0 0 22 21" fill="none" xmlns="http://www.w3.org/2000/svg">
<g clip-path="url(#clip0_815_7149)">
<path d="M16.9583 2.29366C17.3229 1.94556 17.8175 1.75 18.3333 1.75C18.849 1.75 19.3436 1.94556 19.7083 2.29366C20.0729 2.64175 20.2778 3.11387 20.2778 3.60616C20.2778 4.09844 20.0729 4.57056 19.7083 4.91866L10.9999 13.2312L7.33325 14.1062L8.24992 10.6062L16.9583 2.29366Z" stroke="black" stroke-width="2" stroke-linecap="round" stroke-linejoin="round"/>
<path d="M10.0833 3.60596H3.66659C3.18036 3.60596 2.71404 3.79033 2.37022 4.11852C2.02641 4.44671 1.83325 4.89183 1.83325 5.35596V17.606C1.83325 18.0701 2.02641 18.5152 2.37022 18.8434C2.71404 19.1716 3.18036 19.356 3.66659 19.356H16.4999C16.9861 19.356 17.4525 19.1716 17.7963 18.8434C18.1401 18.5152 18.3333 18.0701 18.3333 17.606V11.481" stroke="black" stroke-width="2" stroke-linecap="round" stroke-linejoin="round"/>
</g>
<defs>
<clipPath id="clip0_815_7149">
<rect width="22" height="21" fill="white"/>
</clipPath>
</defs>
</svg>
