<svg width="24" height="24" viewBox="0 0 24 24" fill="none" xmlns="http://www.w3.org/2000/svg">
<path fill-rule="evenodd" clip-rule="evenodd" d="M6.54512 17.4556C6.21038 17.1209 6.21038 16.5782 6.54512 16.2434L16.2426 6.54597C16.5773 6.21124 17.12 6.21124 17.4548 6.54597C17.7895 6.88071 17.7895 7.42342 17.4548 7.75816L7.7573 17.4556C7.42257 17.7904 6.87985 17.7904 6.54512 17.4556Z" fill="#222222"/>
<path fill-rule="evenodd" clip-rule="evenodd" d="M6.54512 6.54597C6.87985 6.21124 7.42257 6.21124 7.7573 6.54597L17.4548 16.2434C17.7895 16.5782 17.7895 17.1209 17.4548 17.4556C17.12 17.7904 16.5773 17.7904 16.2426 17.4556L6.54512 7.75816C6.21038 7.42342 6.21038 6.88071 6.54512 6.54597Z" fill="#222222"/>
</svg>
