<svg width="24" height="25" viewBox="0 0 24 25" fill="none" xmlns="http://www.w3.org/2000/svg">
<path d="M17 3.5H7C5.93913 3.5 4.92172 3.92143 4.17157 4.67157C3.42143 5.42172 3 6.43913 3 7.5V17.5C3 18.5609 3.42143 19.5783 4.17157 20.3284C4.92172 21.0786 5.93913 21.5 7 21.5H17C18.0609 21.5 19.0783 21.0786 19.8284 20.3284C20.5786 19.5783 21 18.5609 21 17.5V7.5C21 6.43913 20.5786 5.42172 19.8284 4.67157C19.0783 3.92143 18.0609 3.5 17 3.5Z" stroke="white" stroke-width="1.5" stroke-linejoin="round"/>
<path d="M12 16.5C13.0609 16.5 14.0783 16.0786 14.8284 15.3284C15.5786 14.5783 16 13.5609 16 12.5C16 11.4391 15.5786 10.4217 14.8284 9.67157C14.0783 8.92143 13.0609 8.5 12 8.5C10.9391 8.5 9.92172 8.92143 9.17157 9.67157C8.42143 10.4217 8 11.4391 8 12.5C8 13.5609 8.42143 14.5783 9.17157 15.3284C9.92172 16.0786 10.9391 16.5 12 16.5V16.5Z" stroke="white" stroke-width="1.5" stroke-linejoin="round"/>
<path d="M17.5 8C17.7652 8 18.0196 7.89464 18.2071 7.70711C18.3946 7.51957 18.5 7.26522 18.5 7C18.5 6.73478 18.3946 6.48043 18.2071 6.29289C18.0196 6.10536 17.7652 6 17.5 6C17.2348 6 16.9804 6.10536 16.7929 6.29289C16.6054 6.48043 16.5 6.73478 16.5 7C16.5 7.26522 16.6054 7.51957 16.7929 7.70711C16.9804 7.89464 17.2348 8 17.5 8Z" fill="white"/>
</svg>
