<svg width="24" height="25" viewBox="0 0 24 25" fill="none" xmlns="http://www.w3.org/2000/svg">
<path d="M11.5 9.55C12.417 8.613 13.611 8 15 8C16.4587 8 17.8576 8.57946 18.8891 9.61091C19.9205 10.6424 20.5 12.0413 20.5 13.5V21H18.5V13.5C18.5 12.5717 18.1313 11.6815 17.4749 11.0251C16.8185 10.3687 15.9283 10 15 10C14.0717 10 13.1815 10.3687 12.5251 11.0251C11.8687 11.6815 11.5 12.5717 11.5 13.5V21H9.5V8.5H11.5V9.55ZM4.5 6.5C4.10218 6.5 3.72064 6.34196 3.43934 6.06066C3.15804 5.77936 3 5.39782 3 5C3 4.60218 3.15804 4.22064 3.43934 3.93934C3.72064 3.65804 4.10218 3.5 4.5 3.5C4.89782 3.5 5.27936 3.65804 5.56066 3.93934C5.84196 4.22064 6 4.60218 6 5C6 5.39782 5.84196 5.77936 5.56066 6.06066C5.27936 6.34196 4.89782 6.5 4.5 6.5ZM3.5 8.5H5.5V21H3.5V8.5Z" fill="white"/>
</svg>
