<svg width="24" height="25" viewBox="0 0 24 25" fill="none" xmlns="http://www.w3.org/2000/svg">
<g clip-path="url(#clip0_3650_6169)">
<path d="M12.905 9.34651L12.905 9.34646C12.9194 8.56035 13.2418 7.8113 13.8028 7.26049C14.3639 6.70969 15.1188 6.40116 15.905 6.40129L12.905 9.34651ZM12.905 9.34651L12.877 10.9213M12.905 9.34651L12.877 10.9213M4.75811 8.30857L4.89001 8.41846C6.76679 9.98211 8.71781 10.9182 10.7495 11.1952C10.7495 11.1952 10.7495 11.1952 10.7495 11.1952L12.3104 11.4072L4.75811 8.30857ZM4.75811 8.30857L4.72759 8.47751M4.75811 8.30857L4.72759 8.47751M4.72759 8.47751C4.42576 10.1482 4.5683 11.5709 5.1479 12.8018C5.72718 14.032 6.73827 15.0605 8.15577 15.9519L8.15579 15.952M4.72759 8.47751L8.15579 15.952M8.15579 15.952L9.90279 17.05L9.954 16.9685M8.15579 15.952L9.954 16.9685M9.954 16.9685L9.90279 17.05C9.97196 17.0934 10.0294 17.1532 10.0702 17.224C10.1109 17.2948 10.1337 17.3745 10.1365 17.4562C10.1392 17.5378 10.122 17.6189 10.0862 17.6924C10.0504 17.7658 9.99716 17.8294 9.93112 17.8775L9.93101 17.8775M9.954 16.9685L9.93101 17.8775M9.93101 17.8775L8.33901 19.0405L8.11542 19.2039M9.93101 17.8775L8.11542 19.2039M8.11542 19.2039L8.39178 19.2211M8.11542 19.2039L8.39178 19.2211M8.39178 19.2211C9.3449 19.2805 10.2529 19.2385 11.0095 19.0884L11.0096 19.0884M8.39178 19.2211L11.0096 19.0884M11.0096 19.0884C13.3886 18.6134 15.3745 17.4794 16.7652 15.7211M11.0096 19.0884L16.7652 15.7211M12.877 10.9213C12.8757 10.9918 12.8594 11.0612 12.8293 11.125C12.7993 11.1887 12.7561 11.2454 12.7026 11.2912C12.649 11.3371 12.5864 11.3712 12.5188 11.3911C12.4513 11.4111 12.3803 11.4166 12.3105 11.4072L12.877 10.9213ZM16.7652 15.7211C18.1557 13.963 18.945 11.5883 18.945 8.64229M16.7652 15.7211L18.945 8.64229M18.945 8.64229C18.945 8.49668 18.8714 8.28474 18.744 8.05722M18.945 8.64229L18.744 8.05722M18.744 8.05722C18.6142 7.82559 18.4215 7.56508 18.1673 7.32049M18.744 8.05722L18.1673 7.32049M18.1673 7.32049C17.6587 6.83088 16.8999 6.40129 15.905 6.40129L18.1673 7.32049ZM20.4978 6.03842C20.8818 5.98388 21.3285 5.84345 21.916 5.51105C21.6101 6.99526 21.4321 7.66764 20.7642 8.58336L20.745 8.60969V8.64229C20.745 12.4415 19.578 15.2567 17.8258 17.2397C16.0726 19.2238 13.7277 20.3813 11.3624 20.8532C9.74529 21.1759 7.7544 21.0728 5.99643 20.7106C5.11813 20.5296 4.30077 20.2846 3.61983 19.9974C3.03727 19.7517 2.56009 19.4775 2.22956 19.1904C2.66065 19.1482 3.4114 19.0535 4.24366 18.8598C5.24355 18.6272 6.37173 18.2494 7.20306 17.641L7.31918 17.556L7.19904 17.4768C7.15724 17.4492 7.11178 17.4196 7.06301 17.3879C6.30477 16.8938 4.74648 15.8786 3.73155 14.0166C2.66714 12.0637 2.19257 9.16295 3.91362 4.92592C5.57889 6.84347 7.2726 8.16001 8.99504 8.8668L8.99505 8.86681C9.57662 9.10536 9.94255 9.22373 10.2318 9.29141C10.4509 9.34265 10.6261 9.36463 10.8117 9.38794C10.8703 9.39529 10.93 9.40278 10.9924 9.41135L11.2872 9.45189L11.1059 9.27077C11.131 8.3414 11.4254 7.43895 11.9539 6.67331C12.4904 5.89606 13.2442 5.29434 14.1211 4.9435C14.9979 4.59265 15.9588 4.50828 16.8833 4.70093C17.8079 4.89359 18.6551 5.35471 19.3189 6.02657L19.3485 6.05658L19.3907 6.05628C19.4934 6.05556 19.5972 6.05908 19.7036 6.06269C19.9483 6.07098 20.2068 6.07974 20.4978 6.03842Z" fill="white" stroke="black" stroke-width="0.2"/>
</g>
<defs>
<clipPath id="clip0_3650_6169">
<rect width="24" height="24" fill="white" transform="translate(0 0.5)"/>
</clipPath>
</defs>
</svg>
